<svg id="visual" viewBox="0 0 900 900" width="900" height="900" xmlns="http://www.w3.org/2000/svg" xmlns:xlink="http://www.w3.org/1999/xlink" version="1.1"><rect x="0" y="0" width="900" height="900" fill="#ffffff"></rect><path d="M0 640L21.5 638.5C43 637 86 634 128.8 627.5C171.7 621 214.3 611 257.2 611.2C300 611.3 343 621.7 385.8 612.8C428.7 604 471.3 576 514.2 574.7C557 573.3 600 598.7 642.8 605.8C685.7 613 728.3 602 771.2 585.5C814 569 857 547 878.5 536L900 525L900 901L878.5 901C857 901 814 901 771.2 901C728.3 901 685.7 901 642.8 901C600 901 557 901 514.2 901C471.3 901 428.7 901 385.8 901C343 901 300 901 257.2 901C214.3 901 171.7 901 128.8 901C86 901 43 901 21.5 901L0 901Z" fill="#e8e1d0"></path><path d="M0 701L21.5 697.7C43 694.3 86 687.7 128.8 684.7C171.7 681.7 214.3 682.3 257.2 669.3C300 656.3 343 629.7 385.8 623C428.7 616.3 471.3 629.7 514.2 631.3C557 633 600 623 642.8 625.5C685.7 628 728.3 643 771.2 641C814 639 857 620 878.5 610.5L900 601L900 901L878.5 901C857 901 814 901 771.2 901C728.3 901 685.7 901 642.8 901C600 901 557 901 514.2 901C471.3 901 428.7 901 385.8 901C343 901 300 901 257.2 901C214.3 901 171.7 901 128.8 901C86 901 43 901 21.5 901L0 901Z" fill="#c1b3a2"></path><path d="M0 734L21.5 729.3C43 724.7 86 715.3 128.8 711.7C171.7 708 214.3 710 257.2 717.5C300 725 343 738 385.8 743.5C428.7 749 471.3 747 514.2 740.7C557 734.3 600 723.7 642.8 717.3C685.7 711 728.3 709 771.2 699C814 689 857 671 878.5 662L900 653L900 901L878.5 901C857 901 814 901 771.2 901C728.3 901 685.7 901 642.8 901C600 901 557 901 514.2 901C471.3 901 428.7 901 385.8 901C343 901 300 901 257.2 901C214.3 901 171.7 901 128.8 901C86 901 43 901 21.5 901L0 901Z" fill="#9c8678"></path><path d="M0 795L21.5 783.8C43 772.7 86 750.3 128.8 751.7C171.7 753 214.3 778 257.2 783.7C300 789.3 343 775.7 385.8 767C428.7 758.3 471.3 754.7 514.2 757.3C557 760 600 769 642.8 769.7C685.7 770.3 728.3 762.7 771.2 753.7C814 744.7 857 734.3 878.5 729.2L900 724L900 901L878.5 901C857 901 814 901 771.2 901C728.3 901 685.7 901 642.8 901C600 901 557 901 514.2 901C471.3 901 428.7 901 385.8 901C343 901 300 901 257.2 901C214.3 901 171.7 901 128.8 901C86 901 43 901 21.5 901L0 901Z" fill="#775b53"></path><path d="M0 840L21.5 832.2C43 824.3 86 808.7 128.8 810.2C171.7 811.7 214.3 830.3 257.2 831.2C300 832 343 815 385.8 808.8C428.7 802.7 471.3 807.3 514.2 807C557 806.7 600 801.3 642.8 797.3C685.7 793.3 728.3 790.7 771.2 800C814 809.3 857 830.7 878.5 841.3L900 852L900 901L878.5 901C857 901 814 901 771.2 901C728.3 901 685.7 901 642.8 901C600 901 557 901 514.2 901C471.3 901 428.7 901 385.8 901C343 901 300 901 257.2 901C214.3 901 171.7 901 128.8 901C86 901 43 901 21.5 901L0 901Z" fill="#523433"></path></svg>