<svg id="visual" viewBox="0 0 900 600" width="900" height="600" xmlns="http://www.w3.org/2000/svg" xmlns:xlink="http://www.w3.org/1999/xlink" version="1.1"><rect x="0" y="0" width="900" height="600" fill="#e6dbd1"></rect><path d="M454 0L444.3 20C434.7 40 415.3 80 400.8 120C386.3 160 376.7 200 382 240C387.3 280 407.7 320 423.7 360C439.7 400 451.3 440 451.7 480C452 520 441 560 435.5 580L430 600L0 600L0 580C0 560 0 520 0 480C0 440 0 400 0 360C0 320 0 280 0 240C0 200 0 160 0 120C0 80 0 40 0 20L0 0Z" fill="#523433" stroke-linecap="round" stroke-linejoin="miter"></path></svg>